<svg class="catalog-menu__root-item-icon" width="20" height="21" viewBox="0 0 20 21" fill="none" xmlns="http://www.w3.org/2000/svg"><path fill-rule="evenodd" clip-rule="evenodd" d="M10 1.53968C5.32682 1.53968 1.53846 5.32804 1.53846 10.0012C1.53846 14.6744 5.32682 18.4628 10 18.4628C14.6732 18.4628 18.4615 14.6744 18.4615 10.0012C18.4615 5.32804 14.6732 1.53968 10 1.53968ZM0 10.0012C0 4.47837 4.47715 0.0012207 10 0.0012207C15.5228 0.0012207 20 4.47837 20 10.0012C20 15.5241 15.5228 20.0012 10 20.0012C4.47715 20.0012 0 15.5241 0 10.0012ZM9.99895 5.51602C10.4238 5.51602 10.7682 5.86042 10.7682 6.28525V10.1608C10.7682 10.5857 10.4238 10.9301 9.99895 10.9301C9.57412 10.9301 9.22972 10.5857 9.22972 10.1608V6.28525C9.22972 5.86042 9.57412 5.51602 9.99895 5.51602ZM10.4046 13.0612C10.7663 13.2841 10.8788 13.758 10.6559 14.1196L10.6538 14.123C10.431 14.4847 9.9571 14.5973 9.59542 14.3744C9.23374 14.1515 9.1212 13.6776 9.34407 13.316L9.34616 13.3126C9.56903 12.9509 10.0429 12.8384 10.4046 13.0612Z" fill="url(#paint0_linear_559_7921)"></path><defs><linearGradient id="paint0_linear_559_7921" x1="25.7321" y1="20.0012" x2="25.7321" y2="0.00122084" gradientUnits="userSpaceOnUse"><stop stop-color="#FC8507"></stop><stop offset="1" stop-color="#FFA218"></stop></linearGradient></defs></svg>